<svg width="24" height="24" viewBox="0 0 24 24" fill="none" xmlns="http://www.w3.org/2000/svg">
<mask id="mask0_316_232" style="mask-type:luminance" maskUnits="userSpaceOnUse" x="0" y="0" width="24" height="24">
<path d="M24 0H0V24H24V0Z" fill="white"/>
</mask>
<g mask="url(#mask0_316_232)">
<path d="M23.9996 11.2472C23.855 8.90722 23.0288 6.66071 21.6228 4.78462C20.2169 2.90854 18.2926 1.48489 16.0873 0.689192C13.8821 -0.106505 11.4921 -0.239469 9.21222 0.306693C6.93228 0.852855 4.862 2.05427 3.25661 3.76282C1.65122 5.47137 0.580904 7.61236 0.177606 9.92186C-0.225693 12.2314 0.0556601 14.6084 0.98698 16.7599C1.9183 18.9114 3.45887 20.7434 5.41877 22.0299C7.37867 23.3165 9.67222 24.0014 12.0166 24.0002H18.9996C20.3253 23.9989 21.5963 23.4717 22.5337 22.5343C23.4711 21.5969 23.9983 20.3259 23.9996 19.0002V11.2472ZM21.9996 19.0002C21.9996 19.7958 21.6836 20.5589 21.121 21.1215C20.5583 21.6841 19.7953 22.0002 18.9996 22.0002H12.0166C10.6056 21.9996 9.21051 21.7015 7.92236 21.1255C6.63421 20.5495 5.48194 19.7084 4.54066 18.6572C3.59484 17.6065 2.88459 16.3657 2.45756 15.018C2.03052 13.6703 1.89656 12.2469 2.06466 10.8432C2.3301 8.62914 3.32485 6.56639 4.8921 4.98012C6.45936 3.39386 8.50996 2.37431 10.7206 2.0822C11.1519 2.02815 11.586 2.00076 12.0206 2.0002C14.3511 1.99384 16.6094 2.8081 18.3996 4.3002C19.4452 5.16914 20.3033 6.24135 20.9222 7.45183C21.541 8.6623 21.9075 9.98584 21.9996 11.3422V19.0002Z" fill="white"/>
<path d="M7.99951 8.99987H11.9995C12.2648 8.99987 12.5191 8.89452 12.7067 8.70698C12.8942 8.51945 12.9995 8.26509 12.9995 7.99988C12.9995 7.73466 12.8942 7.48031 12.7067 7.29277C12.5191 7.10523 12.2648 6.99988 11.9995 6.99988H7.99951C7.73429 6.99988 7.47994 7.10523 7.2924 7.29277C7.10486 7.48031 6.99951 7.73466 6.99951 7.99988C6.99951 8.26509 7.10486 8.51945 7.2924 8.70698C7.47994 8.89452 7.73429 8.99987 7.99951 8.99987Z" fill="white"/>
<path d="M15.9995 11.0001H7.99951C7.73429 11.0001 7.47994 11.1055 7.2924 11.293C7.10486 11.4806 6.99951 11.7349 6.99951 12.0001C6.99951 12.2653 7.10486 12.5197 7.2924 12.7072C7.47994 12.8948 7.73429 13.0001 7.99951 13.0001H15.9995C16.2648 13.0001 16.5191 12.8948 16.7067 12.7072C16.8942 12.5197 16.9995 12.2653 16.9995 12.0001C16.9995 11.7349 16.8942 11.4806 16.7067 11.293C16.5191 11.1055 16.2648 11.0001 15.9995 11.0001Z" fill="white"/>
<path d="M15.9995 15H7.99951C7.73429 15 7.47994 15.1054 7.2924 15.2929C7.10486 15.4804 6.99951 15.7348 6.99951 16C6.99951 16.2652 7.10486 16.5196 7.2924 16.7071C7.47994 16.8947 7.73429 17 7.99951 17H15.9995C16.2648 17 16.5191 16.8947 16.7067 16.7071C16.8942 16.5196 16.9995 16.2652 16.9995 16C16.9995 15.7348 16.8942 15.4804 16.7067 15.2929C16.5191 15.1054 16.2648 15 15.9995 15Z" fill="white"/>
</g>
</svg>
