<svg width="211" height="65" viewBox="0 0 211 65" fill="none" xmlns="http://www.w3.org/2000/svg">
<path d="M68.432 27.03V40.936C68.432 42.228 68.7267 43.2253 69.316 43.928C69.928 44.6307 70.846 44.982 72.07 44.982C73.294 44.982 74.212 44.6307 74.824 43.928C75.4587 43.2027 75.776 42.2053 75.776 40.936V27.03H82.44V40.936C82.44 43.1347 81.9753 45.016 81.046 46.58C80.1167 48.1213 78.8473 49.2887 77.238 50.082C75.6513 50.8527 73.8833 51.238 71.934 51.238C69.9847 51.238 68.2393 50.8527 66.698 50.082C65.1793 49.2887 63.978 48.1213 63.094 46.58C62.2327 45.0387 61.802 43.1573 61.802 40.936V27.03H68.432ZM98.5871 31.756C100.786 31.756 102.531 32.4927 103.823 33.966C105.115 35.4167 105.761 37.3887 105.761 39.882V51H99.0971V40.766C99.0971 39.678 98.8137 38.828 98.2471 38.216C97.6804 37.5813 96.9211 37.264 95.9691 37.264C94.9717 37.264 94.1897 37.5813 93.6231 38.216C93.0564 38.828 92.7731 39.678 92.7731 40.766V51H86.1091V31.926H92.7731V34.646C93.3624 33.7847 94.1557 33.0933 95.1531 32.572C96.1504 32.028 97.2951 31.756 98.5871 31.756ZM125.296 27.03V42.908C125.296 45.6053 124.559 47.668 123.086 49.096C121.635 50.524 119.629 51.238 117.068 51.238C114.348 51.238 112.172 50.4787 110.54 48.96C108.93 47.4413 108.126 45.254 108.126 42.398H114.722C114.744 44.2793 115.436 45.22 116.796 45.22C118.02 45.22 118.632 44.4493 118.632 42.908V27.03H125.296ZM138.147 51.238C136.243 51.238 134.532 50.8413 133.013 50.048C131.517 49.2547 130.338 48.1213 129.477 46.648C128.616 45.1747 128.185 43.4407 128.185 41.446C128.185 39.474 128.616 37.7513 129.477 36.278C130.361 34.8047 131.551 33.6713 133.047 32.878C134.566 32.0847 136.277 31.688 138.181 31.688C140.085 31.688 141.785 32.0847 143.281 32.878C144.8 33.6713 145.99 34.8047 146.851 36.278C147.735 37.7513 148.177 39.474 148.177 41.446C148.177 43.418 147.735 45.152 146.851 46.648C145.99 48.1213 144.8 49.2547 143.281 50.048C141.762 50.8413 140.051 51.238 138.147 51.238ZM138.147 45.458C139.076 45.458 139.847 45.118 140.459 44.438C141.094 43.7353 141.411 42.738 141.411 41.446C141.411 40.154 141.094 39.168 140.459 38.488C139.847 37.808 139.088 37.468 138.181 37.468C137.274 37.468 136.515 37.808 135.903 38.488C135.291 39.168 134.985 40.154 134.985 41.446C134.985 42.7607 135.28 43.758 135.869 44.438C136.458 45.118 137.218 45.458 138.147 45.458ZM170.404 31.926V51H163.706V48.28C163.14 49.1413 162.358 49.844 161.36 50.388C160.363 50.9093 159.218 51.17 157.926 51.17C155.705 51.17 153.948 50.4447 152.656 48.994C151.387 47.5207 150.752 45.526 150.752 43.01V31.926H157.382V42.16C157.382 43.248 157.666 44.1093 158.232 44.744C158.822 45.356 159.592 45.662 160.544 45.662C161.519 45.662 162.29 45.356 162.856 44.744C163.423 44.1093 163.706 43.248 163.706 42.16V31.926H170.404ZM180.861 35.292C181.609 34.204 182.516 33.3427 183.581 32.708C184.646 32.0733 185.791 31.756 187.015 31.756V38.862H185.145C183.694 38.862 182.618 39.1453 181.915 39.712C181.212 40.2787 180.861 41.2647 180.861 42.67V51H174.197V31.926H180.861V35.292ZM201.882 31.756C204.081 31.756 205.826 32.4927 207.118 33.966C208.41 35.4167 209.056 37.3887 209.056 39.882V51H202.392V40.766C202.392 39.678 202.109 38.828 201.542 38.216C200.975 37.5813 200.216 37.264 199.264 37.264C198.267 37.264 197.485 37.5813 196.918 38.216C196.351 38.828 196.068 39.678 196.068 40.766V51H189.404V31.926H196.068V34.646C196.657 33.7847 197.451 33.0933 198.448 32.572C199.445 32.028 200.59 31.756 201.882 31.756Z" fill="#76BDFF"/>
<path d="M11.377 0.000869081C8.56673 0.000869081 6.30416 3.0117 6.30416 5.50346L6.2696 32.5137L0.633948 32.4975H0.632714C0.289569 32.4975 0.00835377 32.7737 0.000770444 33.1197C-0.00112539 33.2267 -0.00174746 46.3143 0.02669 46.6074C0.365412 50.116 3.78083 51 5.96103 51C6.18664 51 6.39897 50.9904 6.59298 50.9739L43.4222 50.9714C45.8634 51.209 47.2049 47.077 47.3509 46.6061C47.3698 46.5443 47.3805 46.4807 47.3805 46.4158V6.33967L49.3664 6.33594C49.7083 6.3353 49.9876 6.06093 49.9971 5.71625C50.042 4.1139 49.5618 2.80618 48.5703 1.82884C46.5633 -0.150038 43.1909 -0.00113189 43.0791 0.00460279L11.377 0.000869081ZM11.3782 1.2751L43.1099 1.27883C43.1377 1.27565 46.0826 1.15449 47.6903 2.74345C48.2906 3.33725 48.635 4.11495 48.7172 5.06171L25.2612 5.10153C24.9118 5.10217 24.6299 5.3882 24.6305 5.73989C24.6312 6.09158 24.9136 6.37576 25.2625 6.37576L46.1166 6.34092V46.315C45.7223 47.5229 44.6297 49.8232 43.4802 49.6996L6.53867 49.7021C6.33898 49.7212 1.63194 50.0833 1.28564 46.5078C1.26731 46.0657 1.26342 36.3539 1.26342 33.773L6.26837 33.7867L6.25232 45.8931C6.25232 45.9384 6.25642 45.9823 6.2659 46.0263C6.26842 46.0358 6.46218 47.0437 5.85489 47.4349C5.5604 47.6241 5.47465 48.0184 5.66234 48.3147C5.78304 48.5052 5.987 48.6096 6.19554 48.6096C6.31182 48.6096 6.42943 48.577 6.53497 48.5088C7.57515 47.8392 7.64699 46.5457 7.51744 45.8321L7.53349 33.325C7.54921 33.2697 7.56794 33.2149 7.56805 33.1545C7.56827 33.0931 7.54942 33.0378 7.53349 32.9816L7.56805 5.5047C7.56805 3.601 9.3263 1.2751 11.3782 1.2751ZM18.943 5.10153C18.5942 5.10153 18.3111 5.38696 18.3111 5.73864C18.3111 6.09033 18.5942 6.37576 18.943 6.37576H22.1027C22.4516 6.37576 22.7347 6.09033 22.7347 5.73864C22.7347 5.38696 22.4516 5.10153 22.1027 5.10153H18.943ZM10.4118 10.8356C10.2374 10.8356 10.0958 10.9783 10.0958 11.1541C10.0958 11.33 10.2374 11.4727 10.4118 11.4727H24.9465C25.1209 11.4727 25.2625 11.33 25.2625 11.1541C25.2625 10.9783 25.1209 10.8356 24.9465 10.8356H10.4118ZM26.8423 10.8356C26.6679 10.8356 26.5264 10.9783 26.5264 11.1541C26.5264 11.33 26.6679 11.4727 26.8423 11.4727H35.6895C35.8639 11.4727 36.0055 11.33 36.0055 11.1541C36.0055 10.9783 35.8639 10.8356 35.6895 10.8356H26.8423ZM37.5854 10.8356C37.4109 10.8356 37.2694 10.9783 37.2694 11.1541C37.2694 11.33 37.4109 11.4727 37.5854 11.4727H44.5367C44.7112 11.4727 44.8527 11.33 44.8527 11.1541C44.8527 10.9783 44.7112 10.8356 44.5367 10.8356H37.5854ZM10.4118 14.6583C10.2374 14.6583 10.0958 14.801 10.0958 14.9768C10.0958 15.1527 10.2374 15.2954 10.4118 15.2954H21.7868C21.9612 15.2954 22.1027 15.1527 22.1027 14.9768C22.1027 14.801 21.9612 14.6583 21.7868 14.6583H10.4118ZM23.6826 14.6583C23.5082 14.6583 23.3666 14.801 23.3666 14.9768C23.3666 15.1527 23.5082 15.2954 23.6826 15.2954H44.5367C44.7112 15.2954 44.8527 15.1527 44.8527 14.9768C44.8527 14.801 44.7112 14.6583 44.5367 14.6583H23.6826ZM10.4118 19.7552C10.2374 19.7552 10.0958 19.8979 10.0958 20.0738V30.2676C10.0958 30.4434 10.2374 30.5862 10.4118 30.5862H21.1548C21.3292 30.5862 21.4708 30.4434 21.4708 30.2676V21.9851C21.4708 21.8093 21.3292 21.6665 21.1548 21.6665C20.9804 21.6665 20.8389 21.8093 20.8389 21.9851V29.949H10.7278V20.3923H19.259C19.4334 20.3923 19.575 20.2496 19.575 20.0738C19.575 19.8979 19.4334 19.7552 19.259 19.7552H10.4118ZM24.9465 21.0294C24.7721 21.0294 24.6305 21.1721 24.6305 21.348C24.6305 21.5238 24.7721 21.6665 24.9465 21.6665H44.5367C44.7112 21.6665 44.8527 21.5238 44.8527 21.348C44.8527 21.1721 44.7112 21.0294 44.5367 21.0294H24.9465ZM24.9465 25.4892C24.7721 25.4892 24.6305 25.6319 24.6305 25.8078C24.6305 25.9836 24.7721 26.1264 24.9465 26.1264H44.5367C44.7112 26.1264 44.8527 25.9836 44.8527 25.8078C44.8527 25.6319 44.7112 25.4892 44.5367 25.4892H24.9465ZM24.9465 29.949C24.7721 29.949 24.6305 30.0918 24.6305 30.2676C24.6305 30.4434 24.7721 30.5862 24.9465 30.5862H44.5367C44.7112 30.5862 44.8527 30.4434 44.8527 30.2676C44.8527 30.0918 44.7112 29.949 44.5367 29.949H24.9465ZM10.4118 35.046C10.2374 35.046 10.0958 35.1887 10.0958 35.3645C10.0958 35.5404 10.2374 35.6831 10.4118 35.6831H30.002C30.1765 35.6831 30.318 35.5404 30.318 35.3645C30.318 35.1887 30.1765 35.046 30.002 35.046H10.4118ZM33.1618 35.046C32.9873 35.046 32.8458 35.1887 32.8458 35.3645V44.2842C32.8458 44.46 32.9873 44.6027 33.1618 44.6027C33.3362 44.6027 33.4777 44.46 33.4777 44.2842V35.6831H43.5888V45.2398H35.6895C35.5151 45.2398 35.3736 45.3825 35.3736 45.5584C35.3736 45.7342 35.5151 45.8769 35.6895 45.8769H43.9048C44.0792 45.8769 44.2208 45.7342 44.2208 45.5584V35.3645C44.2208 35.1887 44.0792 35.046 43.9048 35.046H33.1618ZM10.4118 39.5058C10.2374 39.5058 10.0958 39.6485 10.0958 39.8243C10.0958 40.0002 10.2374 40.1429 10.4118 40.1429H30.002C30.1765 40.1429 30.318 40.0002 30.318 39.8243C30.318 39.6485 30.1765 39.5058 30.002 39.5058H10.4118ZM10.4118 43.9656C10.2374 43.9656 10.0958 44.1083 10.0958 44.2842C10.0958 44.46 10.2374 44.6027 10.4118 44.6027H30.002C30.1765 44.6027 30.318 44.46 30.318 44.2842C30.318 44.1083 30.1765 43.9656 30.002 43.9656H10.4118Z" fill="white"/>
</svg>
